<svg xmlns="http://www.w3.org/2000/svg" viewBox="0 0 112 48">
  <style type="text/css">
    :root  { --time: 3s }
    path,
    rect,
    circle { fill: white }
    #box   { fill: #0D1117 }

    #z2, #z3 {
      transform-origin: 96px 0;
      animation: zzz var(--time) infinite ease-in
    }
    #z3 { animation-delay: calc(var(--time) / 2) }

    @keyframes zzz {
      from { opacity: 0; transform: initial }
      33%  { opacity: 60% }
      66%  { opacity: 80% }
      to   { opacity: 0; transform: scale(0) translate(24px) }
    }
  </style>
  <defs>
    <path id="z" d="M95 32h-4.3l5-15.1c.2-.5-.1-.9-.7-.9H81c-.6 0-1 .4-1 1v6c0 .6.4 1 1 1h4.3l-5 15.1c-.2.5.1.9.7.9h14c.6 0 1-.4 1-1v-6c0-.6-.4-1-1-1"/>
  </defs>

  <path id="box" d="M9 0h86a9 9 0 0 1 9 9v30a9 9 0 0 1-9 9H20A20 20 0 0 1 0 28V9a9 9 0 0 1 9-9"/>
  <!-- U -->
  <path d="M31 8h-6c-.6 0-1 .4-1 1v19c0 2.2-1.8 4-4 4s-4-1.8-4-4V9c0-.6-.4-1-1-1H9c-.6 0-1 .4-1 1v19c0 6.6 5.4 12 12 12s12-5.4 12-12V9c0-.6-.4-1-1-1"/>
  <!-- t -->
  <path d="M51 24c.6 0 1-.4 1-1v-6c0-.6-.4-1-1-1h-7V9c0-.6-.4-1-1-1h-6c-.6 0-1 .4-1 1v19c0 6.6 5.4 12 12 12h3c.6 0 1-.4 1-1v-6c0-.6-.4-1-1-1h-3c-2.2 0-4-1.8-4-4v-4z"/>
  <!-- i -->
  <circle cx="60" cy="8" r="4"/>
  <rect width="8" height="24" x="56" y="16" rx="1"/>
  <!-- l -->
  <path d="M76 29V5c0-.6-.4-1-1-1h-6c-.6 0-1 .4-1 1v24c0 4.6 2.6 8.8 6.8 10.8.5.2 1 0 1.2-.5v-.1l2.2-6.7c-1.3-.6-2.2-2-2.2-3.5"/>
  <use href="#z"/>
  <use id="z2" href="#z"/>
  <use id="z3" href="#z"/>
</svg>
